Jump_normalized_Precision Landing16_filtered_grf
version=1
nRows=20
nColumns=37
inDegrees=yes
endheader
time		1_ground_force_vx		1_ground_force_vy		1_ground_force_vz		1_ground_force_px		1_ground_force_py		1_ground_force_pz		1_ground_torque_x		1_ground_torque_y		1_ground_torque_z		2_ground_force_vx		2_ground_force_vy		2_ground_force_vz		2_ground_force_px		2_ground_force_py		2_ground_force_pz		2_ground_torque_x		2_ground_torque_y		2_ground_torque_z		3_ground_force_vx		3_ground_force_vy		3_ground_force_vz		3_ground_force_px		3_ground_force_py		3_ground_force_pz		3_ground_torque_x		3_ground_torque_y		3_ground_torque_z		4_ground_force_vx		4_ground_force_vy		4_ground_force_vz		4_ground_force_px		4_ground_force_py		4_ground_force_pz		4_ground_torque_x		4_ground_torque_y		4_ground_torque_z		
0.497000		0.000000		0.000000		0.000000		0.082987		0.000000		0.398289		0.000000		0.000000		-0.000000		-0.000000		0.000000		-0.000000		-0.148927		0.000000		0.420500		-0.000000		-0.000000		0.000000		-36.933297		403.057824		-60.007877		0.353287		1.254293		1.893283		2.132754		-23.275022		3.465222		-1.020161		298.547857		-44.394986		-0.289438		1.264153		1.904635		3.390674		25.841461		37.857885		
0.500561		0.000000		0.000000		0.000000		0.082987		0.000000		0.398289		0.000000		0.000000		-0.000000		-0.000000		0.000000		0.000000		-0.148927		0.000000		0.420500		0.000000		-0.000000		0.000000		-37.062071		394.142883		-63.980255		0.353260		1.254335		1.893340		2.134171		-22.696206		3.684218		-2.146505		275.349006		-43.768581		-0.289431		1.264202		1.904603		3.211617		24.163422		34.752057		
0.504121		0.000000		0.000000		0.000000		0.082987		0.000000		0.398289		0.000000		0.000000		-0.000000		0.000000		0.000000		0.000000		-0.148927		0.000000		0.420500		0.000000		-0.000000		0.000000		-36.923937		384.186426		-67.664318		0.353230		1.254377		1.893391		2.119392		-22.051866		3.883852		-3.432147		250.543127		-42.924416		-0.289419		1.264246		1.904558		3.018548		22.339494		31.451355		
0.507682		-0.000000		0.000000		0.000000		0.082987		0.000000		0.398289		0.000000		0.000000		-0.000000		0.000000		0.000000		0.000000		-0.148927		0.000000		0.420500		0.000000		-0.000000		0.000000		-36.393359		372.968641		-71.158211		0.353199		1.254423		1.893438		2.082006		-21.336941		4.070843		-4.863176		224.871110		-41.671951		-0.289401		1.264283		1.904498		2.826951		20.393037		28.063793		
0.511242		-0.000000		-0.000000		0.000000		0.082987		0.000000		0.398289		-0.000000		0.000000		0.000000		0.000000		0.000000		0.000000		-0.148927		0.000000		0.420500		0.000000		-0.000000		-0.000000		-35.311456		360.250120		-74.564619		0.353163		1.254476		1.893482		2.013829		-20.545232		4.252450		-6.374709		199.191322		-39.706019		-0.289374		1.264308		1.904416		-0.409766		12.804315		-2.552351		
0.514803		-0.000000		-0.000000		-0.000000		0.082987		0.000000		0.398289		-0.000000		-0.000000		0.000000		0.000000		-0.000000		0.000000		-0.148927		0.000000		0.420500		0.000000		0.000000		-0.000000		-33.540277		345.844717		-77.876958		0.353122		1.254536		1.893522		1.907458		-19.668409		4.428907		-7.863596		174.208282		-36.623487		-0.289342		1.264323		1.904317		-0.497461		11.020942		-2.316905		
0.518364		-0.000000		-0.000000		-0.000000		0.082987		0.000000		0.398289		-0.000000		-0.000000		0.000000		-0.000000		-0.000000		-0.000000		-0.148927		0.000000		0.420500		-0.000000		0.000000		-0.000000		-31.023422		329.670554		-80.954822		0.353079		1.254603		1.893551		1.759424		-18.696515		4.591164		-9.253180		150.235378		-32.089573		-0.289308		1.264335		1.904197		-0.572818		9.300587		-1.986563		
0.521924		0.000000		-0.000000		-0.000000		0.082987		0.000000		0.398289		-0.000000		-0.000000		0.000000		-0.000000		-0.000000		-0.000000		-0.148927		0.000000		0.420500		-0.000000		0.000000		-0.000000		-27.797787		311.775498		-83.487416		0.353035		1.254671		1.893565		1.571313		-17.623588		4.719251		-10.533744		127.149146		-25.996480		-0.289283		1.264353		1.904062		-0.633212		7.643466		-1.562768		
0.525485		0.000000		-0.000000		-0.000000		0.082987		0.000000		0.398289		-0.000000		-0.000000		0.000000		-0.000000		-0.000000		-0.000000		-0.148927		0.000000		0.420500		-0.000000		0.000000		-0.000000		-23.976354		292.311659		-85.039427		0.352998		1.254731		1.893549		1.349643		-16.454396		4.786918		-11.773275		104.577278		-18.639283		-0.289273		1.264381		1.903911		-0.678985		6.031207		-1.074976		
0.529045		0.000000		0.000000		0.000000		0.082987		0.000000		0.398289		0.000000		-0.000000		-0.000000		-0.000000		0.000000		-0.000000		-0.148927		0.000000		0.420500		-0.000000		-0.000000		0.000000		-19.706505		271.488220		-85.156710		0.352971		1.254781		1.893497		1.103784		-15.206353		4.769718		-13.074718		82.273732		-10.798508		-0.289283		1.264424		1.903743		-0.707222		4.450479		-0.584165		
0.532606		0.000000		0.000000		0.000000		0.082987		0.000000		0.398289		0.000000		0.000000		-0.000000		-0.000000		0.000000		0.000000		-0.148927		0.000000		0.420500		0.000000		-0.000000		0.000000		-15.135888		249.557578		-83.505316		0.352952		1.254819		1.893404		0.843386		-13.905529		4.652972		-14.500976		60.508046		-3.642904		-0.289309		1.264478		1.903559		-0.699062		2.917684		-0.175792		
0.536167		0.000000		0.000000		0.000000		0.082987		0.000000		0.398289		0.000000		0.000000		-0.000000		0.000000		0.000000		0.000000		-0.148927		0.000000		0.420500		0.000000		-0.000000		0.000000		-10.401531		226.829291		-79.964580		0.352945		1.254845		1.893259		0.576859		-12.579652		4.434726		-16.010573		40.236462		1.616408		-0.289343		1.264541		1.903361		-0.596984		1.501804		0.060020		
0.539727		-0.000000		0.000000		0.000000		0.082987		0.000000		0.398289		0.000000		0.000000		-0.000000		0.000000		0.000000		0.000000		-0.148927		0.000000		0.420500		0.000000		-0.000000		0.000000		-5.667517		203.709957		-74.608094		0.352946		1.254863		1.893073		0.313110		-11.254105		4.121776		-17.450174		22.887760		4.200252		-0.289374		1.264604		1.903158		-0.297319		0.392063		0.071461		
0.543288		-0.000000		-0.000000		0.000000		0.082987		0.000000		0.398289		-0.000000		0.000000		0.000000		0.000000		0.000000		0.000000		-0.148927		0.000000		0.420500		0.000000		-0.000000		-0.000000		-1.128410		180.672012		-67.696045		0.352959		1.254875		1.892847		0.508609		-20.159804		-23.530775		-18.615665		9.806958		4.150839		-0.289395		1.264660		1.902955		0.099318		-0.051564		-0.022055		
0.546848		-0.000000		-0.000000		-0.000000		0.082987		0.000000		0.398289		-0.000000		-0.000000		0.000000		0.000000		-0.000000		0.000000		-0.148927		0.000000		0.420500		0.000000		0.000000		-0.000000		3.022725		158.188372		-59.551002		0.352977		1.254886		1.892605		0.549244		-17.727566		-20.732425		-19.352922		1.621860		2.308148		-0.289405		1.264704		1.902762		0.122806		-0.010485		-0.014724		
0.550409		-0.000000		-0.000000		-0.000000		0.082987		0.000000		0.398289		-0.000000		-0.000000		0.000000		-0.000000		-0.000000		-0.000000		-0.148927		0.000000		0.420500		-0.000000		0.000000		-0.000000		6.643196		136.609035		-50.521042		0.352988		1.254900		1.892371		0.591455		-15.199031		-18.068596		-19.626317		-2.084371		-0.158108		-0.289409		1.264735		1.902585		-0.042076		-0.004509		-0.000389		
0.553970		0.000000		-0.000000		-0.000000		0.082987		0.000000		0.398289		-0.000000		-0.000000		0.000000		-0.000000		-0.000000		-0.000000		-0.148927		0.000000		0.420500		-0.000000		0.000000		-0.000000		9.666960		116.076044		-40.941708		0.352970		1.254926		1.892175		-0.521781		-6.265332		2.209875		-19.525051		-2.573114		-2.292068		-0.289416		1.264758		1.902428		-0.115806		-0.015261		-0.013597		
0.557530		0.000000		-0.000000		-0.000000		0.082987		0.000000		0.398289		-0.000000		-0.000000		0.000000		-0.000000		-0.000000		-0.000000		-0.148927		0.000000		0.420500		-0.000000		0.000000		-0.000000		12.075597		96.515003		-31.181973		0.352914		1.254961		1.892024		-0.639810		-5.113781		1.652161		-19.222456		-1.396103		-3.605667		-0.289428		1.264776		1.902290		-0.099720		-0.007246		-0.018703		
0.561091		0.000000		0.000000		0.000000		0.082987		0.000000		0.398289		0.000000		-0.000000		-0.000000		-0.000000		0.000000		-0.000000		-0.148927		0.000000		0.420500		-0.000000		-0.000000		0.000000		13.833780		77.776616		-21.649193		0.352806		1.255002		1.891921		-0.709810		-3.990878		1.110891		-18.910637		0.145508		-4.053285		-0.289442		1.264794		1.902169		-0.049679		0.000371		-0.010647		
0.564652		0.000000		0.000000		0.000000		0.082987		0.000000		0.398289		0.000000		0.000000		-0.000000		-0.000000		0.000000		0.000000		-0.148927		0.000000		0.420500		0.000000		-0.000000		0.000000		14.853777		59.835292		-12.889247		0.352671		1.255037		1.891834		-0.720721		-2.903571		0.625530		-18.733355		1.297493		-3.861907		-0.289451		1.264812		1.902054		-0.004379		0.000296		-0.000906		
